<?xml version="1.0" encoding="iso-8859-1"?>
<!-- Generator: Adobe Illustrator 19.0.0, SVG Export Plug-In . SVG Version: 6.00 Build 0)  -->
<svg version="1.1" id="Capa_1" xmlns="http://www.w3.org/2000/svg" xmlns:xlink="http://www.w3.org/1999/xlink" x="0px" y="0px"
	 viewBox="0 0 512 512" style="enable-background:new 0 0 512 512;" xml:space="preserve">
<path style="fill:#8E4231;" d="M454.61,0H371.4v88.696h140.506V57.847C511.906,25.899,486.254,0,454.61,0z"/>
<path style="fill:#FFDBA9;" d="M241.519,0.01V512c-73.919,0-158.397,0-158.397,0V55.939c0-30.839,24.85-55.929,55.409-55.929
	C138.531,0.01,241.519,0.01,241.519,0.01z"/>
<path style="fill:#FFBE70;" d="M457.415,0.01c-31.119,0-56.419,25.02-57.259,56.219c-0.01,0.06-0.01,0.12-0.01,0.19
	c-0.02,0.16-0.03,0.33-0.03,0.5v400.632l-0.07,0.72c-1.76,18.58-15.79,53.729-56.299,53.729H241.519V0.01
	C241.519,0.01,457.415,0.01,457.415,0.01z"/>
<path style="fill:#B15C49;" d="M343.747,512H57.393c-31.649,0-57.299-25.899-57.299-57.849v-30.849h286.834v31.339
	C286.928,486.31,312.368,512,343.747,512z"/>
<g>
	<rect x="160.047" y="215.266" style="fill:#8E4231;" width="162.937" height="29.999"/>
	<rect x="160.047" y="152.567" style="fill:#8E4231;" width="162.937" height="29.999"/>
	<rect x="160.047" y="278.135" style="fill:#8E4231;" width="162.937" height="29.999"/>
</g>
<g>
	<rect x="241.515" y="152.567" style="fill:#75362C;" width="81.468" height="29.999"/>
	<rect x="241.515" y="215.266" style="fill:#75362C;" width="81.468" height="29.999"/>
	<rect x="241.515" y="278.135" style="fill:#75362C;" width="81.468" height="29.999"/>
</g>
<g>
</g>
<g>
</g>
<g>
</g>
<g>
</g>
<g>
</g>
<g>
</g>
<g>
</g>
<g>
</g>
<g>
</g>
<g>
</g>
<g>
</g>
<g>
</g>
<g>
</g>
<g>
</g>
<g>
</g>
</svg>
