<svg id="Capa_1" enable-background="new 0 0 512 512" height="512" viewBox="0 0 512 512" width="512" xmlns="http://www.w3.org/2000/svg"><g><g><g><g><g><g><g><g><circle cx="256" cy="256" fill="#d6e9f8" r="256"/></g></g></g></g></g></g></g><path d="m342.267 132.963-68.002 132.558-125.775 8.894-28.111 157.24 72.494 72.494c20.194 5.121 41.341 7.851 63.127 7.851 141.385 0 256-114.615 256-256 0-11.079-.705-21.992-2.07-32.7l-182.953-182.953z" fill="#b2d7f3"/><g><path d="m368.073 122.327h-10.283l-30.813-81.98c-9.254 15.072-11.714 34.098-5.009 51.936 1.05 2.793 2.308 5.443 3.714 7.975l-39.685-36.279c-1.413 17.63 5.024 35.702 19.088 48.56 6.133 5.606 13.124 9.677 20.503 12.24l-68.346 98.9h-90.115c-22.083 0-40.577 15.317-45.47 35.903-.828 3.482-1.278 7.11-1.278 10.845v21.895h221.623c.714-3.247 1.096-6.618 1.096-10.079v-85.829l46.875 10.278c-.313 1.433-.482 2.919-.482 4.445 0 11.462 9.292 20.753 20.753 20.753 11.462 0 20.753-9.292 20.753-20.753 0-5.036-1.795-9.652-4.778-13.246z" fill="#005fe0"/><path d="m342.003 292.323c.019-.088.032-.178.051-.266-.019.089-.038.177-.057.266zm.051-.266c.151-.708.292-1.419.411-2.138-.12.719-.26 1.431-.411 2.138zm-75.96 36.935h19.711v102.663h28.64v-106.296c13.829-5.811 24.264-18.083 27.551-33.035h-92.916z" fill="#c73c50"/><path d="m266.094 210.87-8.852 12.809h-90.115c-22.083 0-40.577 15.317-45.47 35.903-.828 3.482-1.278 7.11-1.278 10.845v21.895h145.715z" fill="#2681ff"/><path d="m120.379 292.323v139.331h28.64v-106.301c5.57 2.342 11.687 3.639 18.108 3.639h1.603v102.663h28.64v-102.663h40.084v102.663h28.64v-139.332z" fill="#ff5b5b"/><path d="m173.407 255.916-5.049-15.541-5.05 15.541h-16.341l13.22 9.605-5.049 15.541 13.22-9.605 13.22 9.605-5.05-15.541 13.22-9.605z" fill="#f7f9fa"/><path d="m266.094 240.375-5.05 15.541h-16.341l13.221 9.605-5.05 15.541 13.22-9.605 4.021-9.575z" fill="#f7f9fa"/><path d="m336.57 255.916h-16.341l-5.05-15.541-5.049 15.541h-16.341l13.22 9.605-5.05 15.541 13.22-9.605 13.22 9.605-5.049-15.541z" fill="#c7d1db"/><path d="m222.348 255.916-5.039-15.51v.072l-.011-.103-5.049 15.541h-16.341l13.22 9.605-5.05 15.541 13.22-9.605.011-.066v.074l13.209 9.597-5.049-15.541 13.22-9.605z" fill="#f7f9fa"/><path d="m287.485 255.916h-16.341l-5.05-15.541v31.082l13.22 9.605-5.049-15.541z" fill="#c7d1db"/></g></g></svg>