<svg height="512pt" viewBox="0 0 512 512" width="512pt" xmlns="http://www.w3.org/2000/svg"><path d="m467 512h-422c-24.851562 0-45-20.148438-45-45v-332c0-8.285156 6.714844-15 15-15h482c8.285156 0 15 6.714844 15 15v332c0 24.851562-20.148438 45-45 45zm0 0" fill="#e6f0f0"/><path d="m497 120h-241v392h211c24.851562 0 45-20.148438 45-45v-332c0-8.285156-6.714844-15-15-15zm0 0" fill="#cdd7d7"/><path d="m0 135v-90c0-24.8125 20.1875-45 45-45h422c24.8125 0 45 20.1875 45 45v90zm0 0" fill="#5a5a6e"/><path d="m512 45c0-24.8125-20.1875-45-45-45h-211v135h256zm0 0" fill="#46465a"/><path d="m356 451h-60c-8.285156 0-15-6.714844-15-15v-65h-50v65c0 8.285156-6.714844 15-15 15h-60c-8.285156 0-15-6.714844-15-15v-105h-34.5625c-5.84375 0-11.363281-3.160156-13.917969-8.417969-3.105469-6.390625-1.316406-13.953125 4.109375-18.296875l150-120c5.480469-4.382812 13.265625-4.382812 18.742188 0l150 120c5.425781 4.34375 7.214844 11.90625 4.109375 18.296875-2.554688 5.257813-8.074219 8.417969-13.914063 8.417969h-34.566406v105c0 8.285156-6.714844 15-15 15zm0 0" fill="#008fd2"/><path d="m452 75c0 8.285156-6.714844 15-15 15s-15-6.714844-15-15 6.714844-15 15-15 15 6.714844 15 15zm0 0" fill="#68d31e"/><path d="m392 75c0 8.285156-6.714844 15-15 15s-15-6.714844-15-15 6.714844-15 15-15 15 6.714844 15 15zm0 0" fill="#fedc00"/><path d="m332 75c0 8.285156-6.714844 15-15 15s-15-6.714844-15-15 6.714844-15 15-15 15 6.714844 15 15zm0 0" fill="#ff5036"/><path d="m415.371094 304.285156-150-120c-2.738282-2.1875-6.054688-3.285156-9.371094-3.285156v190h25v65c0 8.285156 6.714844 15 15 15h60c8.285156 0 15-6.714844 15-15v-105h34.5625c5.84375 0 11.363281-3.160156 13.917969-8.417969 3.105469-6.390625 1.316406-13.953125-4.109375-18.296875zm0 0" fill="#005f95"/></svg>