<svg id="Capa_1" enable-background="new 0 0 512 512" height="512" viewBox="0 0 512 512" width="512" xmlns="http://www.w3.org/2000/svg"><g><g><g><g><g><g><g><g><circle cx="256" cy="256" fill="#d6e9f8" r="256"/></g></g></g></g></g></g></g><path d="m106.093 249-9.047 110.618 152.296 152.297c2.212.057 4.432.085 6.658.085 135.986 0 247.188-106.035 255.483-239.931l-121.634-121.634z" fill="#b2d7f3"/><g><path d="m260.539 177.368-15.092-77.11c-8.546-3.984-18.078-6.209-28.129-6.209-25.051 0-46.871 13.82-58.261 34.25h-.835v1.545c-27.427 5.59-49.522 25.837-57.751 52.204 0 0-10.166 30.884-16.37 66.952h161.503z" fill="#2681ff"/><path d="m84.1 249c-3.655 21.252-5.93 44.302-3.948 63.898 5.343 52.835 28.695 57.117 45.192 55.15 19.919-2.375 24.608-30.686 24.608-30.686l-13.497-6.098s-4.998 19.331-19.535 11.757c-13.459-7.013-7.812-52.171 12.137-75.807 12.551 8.988 27.929 14.28 44.544 14.28 6.005 0 11.847-.693 17.454-1.999v124.457h54.384v-73.436l21.611-46.677-21.448-34.839z" fill="#ff5b5b"/><path d="m335.986 128.299h-60.407c-6.821-12.234-17.385-22.094-30.14-28.039v148.74h167.144v-44.104c0-42.304-34.294-76.597-76.597-76.597z" fill="#005fe0"/><path d="m245.439 330.515h112.76v73.436h54.384v-154.951h-167.144z" fill="#c73c50"/><g><path d="m198.544 202.566-5.721-17.608-5.721 17.608h-18.514l14.978 10.882-5.721 17.608 14.978-10.882 14.978 10.882-5.721-17.608 14.978-10.882zm46.883-17.608-5.721 17.608h-18.514l14.978 10.882-5.721 17.608 14.978-10.882 2.115-13.772z" fill="#f7f9fa"/><path d="m251.148 202.566-5.71-17.572v35.189l14.967 10.874-5.721-17.608 14.978-10.882h-18.514zm123.723 0h-18.514l-5.721-17.608-5.721 17.608h-18.515l14.978 10.882-5.721 17.608 14.978-10.882 14.978 10.882-5.721-17.608zm-71.118 0-5.721-17.608-5.721 17.608h-18.514l14.978 10.882-5.721 17.608 14.978-10.882 14.978 10.882-5.721-17.608 14.978-10.882z" fill="#c7d1db"/></g></g></g></svg>